<mxfile host="app.diagrams.net" modified="2022-06-01T12:55:21.733Z" agent="5.0 (Windows NT 10.0; Win64; x64) AppleWebKit/537.36 (KHTML, like Gecko) Chrome/102.0.5005.61 Safari/537.36" etag="U7NtrUF1MiY38jWErK_m" version="18.1.3" type="github">
  <diagram id="C5RBs43oDa-KdzZeNtuy" name="Page-1">
    <mxGraphModel dx="731" dy="388" grid="1" gridSize="10" guides="1" tooltips="1" connect="1" arrows="1" fold="1" page="1" pageScale="1" pageWidth="827" pageHeight="1169" math="0" shadow="0">
      <root>
        <mxCell id="WIyWlLk6GJQsqaUBKTNV-0" />
        <mxCell id="WIyWlLk6GJQsqaUBKTNV-1" parent="WIyWlLk6GJQsqaUBKTNV-0" />
        <mxCell id="BfKTVqbURA2rW4PKzyzV-0" value="Students" style="rounded=0;whiteSpace=wrap;html=1;fontStyle=1" parent="WIyWlLk6GJQsqaUBKTNV-1" vertex="1">
          <mxGeometry x="40" y="25" width="110" height="50" as="geometry" />
        </mxCell>
        <mxCell id="BfKTVqbURA2rW4PKzyzV-3" value="&lt;b&gt;Mess Secretary&lt;/b&gt;" style="rounded=0;whiteSpace=wrap;html=1;" parent="WIyWlLk6GJQsqaUBKTNV-1" vertex="1">
          <mxGeometry x="270" y="25" width="110" height="50" as="geometry" />
        </mxCell>
        <mxCell id="BfKTVqbURA2rW4PKzyzV-4" value="&lt;b&gt;Chief Warden&lt;/b&gt;" style="rounded=0;whiteSpace=wrap;html=1;" parent="WIyWlLk6GJQsqaUBKTNV-1" vertex="1">
          <mxGeometry x="450" y="25" width="110" height="50" as="geometry" />
        </mxCell>
        <mxCell id="BfKTVqbURA2rW4PKzyzV-5" value="1. Billing System" style="ellipse;whiteSpace=wrap;html=1;aspect=fixed;" parent="WIyWlLk6GJQsqaUBKTNV-1" vertex="1">
          <mxGeometry x="240" y="160" width="90" height="90" as="geometry" />
        </mxCell>
        <mxCell id="BfKTVqbURA2rW4PKzyzV-6" value="" style="endArrow=classic;html=1;rounded=0;exitX=0.5;exitY=1;exitDx=0;exitDy=0;" parent="WIyWlLk6GJQsqaUBKTNV-1" source="BfKTVqbURA2rW4PKzyzV-0" edge="1">
          <mxGeometry width="50" height="50" relative="1" as="geometry">
            <mxPoint x="390" y="270" as="sourcePoint" />
            <mxPoint x="240" y="200" as="targetPoint" />
            <Array as="points">
              <mxPoint x="95" y="200" />
            </Array>
          </mxGeometry>
        </mxCell>
        <mxCell id="BfKTVqbURA2rW4PKzyzV-8" value="" style="endArrow=classic;html=1;rounded=0;entryX=0.75;entryY=1;entryDx=0;entryDy=0;exitX=0;exitY=0;exitDx=0;exitDy=0;" parent="WIyWlLk6GJQsqaUBKTNV-1" source="BfKTVqbURA2rW4PKzyzV-5" target="BfKTVqbURA2rW4PKzyzV-0" edge="1">
          <mxGeometry width="50" height="50" relative="1" as="geometry">
            <mxPoint x="230" y="170" as="sourcePoint" />
            <mxPoint x="440" y="210" as="targetPoint" />
            <Array as="points">
              <mxPoint x="123" y="173" />
            </Array>
          </mxGeometry>
        </mxCell>
        <mxCell id="BfKTVqbURA2rW4PKzyzV-9" value="" style="endArrow=classic;html=1;rounded=0;exitX=1;exitY=1;exitDx=0;exitDy=0;entryX=0.5;entryY=0;entryDx=0;entryDy=0;" parent="WIyWlLk6GJQsqaUBKTNV-1" source="BfKTVqbURA2rW4PKzyzV-0" target="BfKTVqbURA2rW4PKzyzV-5" edge="1">
          <mxGeometry width="50" height="50" relative="1" as="geometry">
            <mxPoint x="390" y="260" as="sourcePoint" />
            <mxPoint x="150" y="150" as="targetPoint" />
            <Array as="points">
              <mxPoint x="150" y="110" />
              <mxPoint x="285" y="110" />
            </Array>
          </mxGeometry>
        </mxCell>
        <mxCell id="BfKTVqbURA2rW4PKzyzV-10" value="" style="endArrow=classic;html=1;rounded=0;entryX=0.5;entryY=1;entryDx=0;entryDy=0;exitX=1;exitY=0;exitDx=0;exitDy=0;" parent="WIyWlLk6GJQsqaUBKTNV-1" source="BfKTVqbURA2rW4PKzyzV-5" target="BfKTVqbURA2rW4PKzyzV-3" edge="1">
          <mxGeometry width="50" height="50" relative="1" as="geometry">
            <mxPoint x="330" y="180" as="sourcePoint" />
            <mxPoint x="440" y="210" as="targetPoint" />
            <Array as="points">
              <mxPoint x="325" y="160" />
            </Array>
          </mxGeometry>
        </mxCell>
        <mxCell id="BfKTVqbURA2rW4PKzyzV-11" value="" style="endArrow=classic;html=1;rounded=0;exitX=0.989;exitY=0.422;exitDx=0;exitDy=0;exitPerimeter=0;entryX=0.5;entryY=1;entryDx=0;entryDy=0;" parent="WIyWlLk6GJQsqaUBKTNV-1" source="BfKTVqbURA2rW4PKzyzV-5" target="BfKTVqbURA2rW4PKzyzV-4" edge="1">
          <mxGeometry width="50" height="50" relative="1" as="geometry">
            <mxPoint x="389" y="225" as="sourcePoint" />
            <mxPoint x="439" y="175" as="targetPoint" />
            <Array as="points">
              <mxPoint x="380" y="160" />
              <mxPoint x="505" y="160" />
            </Array>
          </mxGeometry>
        </mxCell>
        <mxCell id="BfKTVqbURA2rW4PKzyzV-12" value="Extras/Rebates" style="text;html=1;align=center;verticalAlign=middle;resizable=0;points=[];autosize=1;strokeColor=none;fillColor=none;" parent="WIyWlLk6GJQsqaUBKTNV-1" vertex="1">
          <mxGeometry x="110" y="200" width="90" height="20" as="geometry" />
        </mxCell>
        <mxCell id="BfKTVqbURA2rW4PKzyzV-14" value="Expenses" style="shape=partialRectangle;whiteSpace=wrap;html=1;left=0;right=0;fillColor=none;" parent="WIyWlLk6GJQsqaUBKTNV-1" vertex="1">
          <mxGeometry x="70" y="290" width="120" height="30" as="geometry" />
        </mxCell>
        <mxCell id="BfKTVqbURA2rW4PKzyzV-15" value="Student billing information + bills" style="shape=partialRectangle;whiteSpace=wrap;html=1;left=0;right=0;fillColor=none;" parent="WIyWlLk6GJQsqaUBKTNV-1" vertex="1">
          <mxGeometry x="400" y="250" width="120" height="30" as="geometry" />
        </mxCell>
        <mxCell id="BfKTVqbURA2rW4PKzyzV-16" value="" style="endArrow=classic;startArrow=classic;html=1;rounded=0;exitX=1;exitY=1;exitDx=0;exitDy=0;entryX=0.5;entryY=0;entryDx=0;entryDy=0;" parent="WIyWlLk6GJQsqaUBKTNV-1" source="BfKTVqbURA2rW4PKzyzV-5" target="BfKTVqbURA2rW4PKzyzV-15" edge="1">
          <mxGeometry width="50" height="50" relative="1" as="geometry">
            <mxPoint x="260" y="390" as="sourcePoint" />
            <mxPoint x="480" y="230" as="targetPoint" />
            <Array as="points">
              <mxPoint x="460" y="237" />
            </Array>
          </mxGeometry>
        </mxCell>
        <mxCell id="BfKTVqbURA2rW4PKzyzV-17" value="" style="endArrow=classic;startArrow=classic;html=1;rounded=0;entryX=0;entryY=1;entryDx=0;entryDy=0;exitX=0.75;exitY=0;exitDx=0;exitDy=0;" parent="WIyWlLk6GJQsqaUBKTNV-1" source="BfKTVqbURA2rW4PKzyzV-14" target="BfKTVqbURA2rW4PKzyzV-5" edge="1">
          <mxGeometry width="50" height="50" relative="1" as="geometry">
            <mxPoint x="390" y="260" as="sourcePoint" />
            <mxPoint x="440" y="210" as="targetPoint" />
            <Array as="points">
              <mxPoint x="190" y="260" />
            </Array>
          </mxGeometry>
        </mxCell>
        <mxCell id="BfKTVqbURA2rW4PKzyzV-18" value="2. Store issue and control system" style="ellipse;whiteSpace=wrap;html=1;aspect=fixed;" parent="WIyWlLk6GJQsqaUBKTNV-1" vertex="1">
          <mxGeometry x="240" y="340" width="90" height="90" as="geometry" />
        </mxCell>
        <mxCell id="BfKTVqbURA2rW4PKzyzV-19" value="Payments" style="text;html=1;align=center;verticalAlign=middle;resizable=0;points=[];autosize=1;strokeColor=none;fillColor=none;" parent="WIyWlLk6GJQsqaUBKTNV-1" vertex="1">
          <mxGeometry x="150" y="90" width="60" height="20" as="geometry" />
        </mxCell>
        <mxCell id="BfKTVqbURA2rW4PKzyzV-20" value="Itemized bills &lt;br&gt;at month end" style="text;html=1;align=center;verticalAlign=middle;resizable=0;points=[];autosize=1;strokeColor=none;fillColor=none;" parent="WIyWlLk6GJQsqaUBKTNV-1" vertex="1">
          <mxGeometry x="140" y="140" width="80" height="30" as="geometry" />
        </mxCell>
        <mxCell id="BfKTVqbURA2rW4PKzyzV-21" value="Updated &lt;br&gt;daily rate" style="text;html=1;align=center;verticalAlign=middle;resizable=0;points=[];autosize=1;strokeColor=none;fillColor=none;" parent="WIyWlLk6GJQsqaUBKTNV-1" vertex="1">
          <mxGeometry x="330" y="90" width="60" height="30" as="geometry" />
        </mxCell>
        <mxCell id="BfKTVqbURA2rW4PKzyzV-22" value="Unpaid &lt;br&gt;bills" style="text;html=1;align=center;verticalAlign=middle;resizable=0;points=[];autosize=1;strokeColor=none;fillColor=none;" parent="WIyWlLk6GJQsqaUBKTNV-1" vertex="1">
          <mxGeometry x="500" y="100" width="50" height="30" as="geometry" />
        </mxCell>
        <mxCell id="BfKTVqbURA2rW4PKzyzV-23" value="Vendors" style="rounded=0;whiteSpace=wrap;html=1;fontStyle=1" parent="WIyWlLk6GJQsqaUBKTNV-1" vertex="1">
          <mxGeometry x="40" y="360" width="110" height="50" as="geometry" />
        </mxCell>
        <mxCell id="BfKTVqbURA2rW4PKzyzV-24" value="Mess Manager" style="rounded=0;whiteSpace=wrap;html=1;fontStyle=1" parent="WIyWlLk6GJQsqaUBKTNV-1" vertex="1">
          <mxGeometry x="460" y="360" width="110" height="50" as="geometry" />
        </mxCell>
        <mxCell id="BfKTVqbURA2rW4PKzyzV-25" value="Mess Secretary" style="rounded=0;whiteSpace=wrap;html=1;fontStyle=1" parent="WIyWlLk6GJQsqaUBKTNV-1" vertex="1">
          <mxGeometry x="440" y="480" width="110" height="50" as="geometry" />
        </mxCell>
        <mxCell id="BfKTVqbURA2rW4PKzyzV-26" value="3. Perishable ordering" style="ellipse;whiteSpace=wrap;html=1;aspect=fixed;" parent="WIyWlLk6GJQsqaUBKTNV-1" vertex="1">
          <mxGeometry x="240" y="510" width="90" height="90" as="geometry" />
        </mxCell>
        <mxCell id="BfKTVqbURA2rW4PKzyzV-27" value="" style="endArrow=classic;html=1;rounded=0;entryX=0.5;entryY=0;entryDx=0;entryDy=0;exitX=0.5;exitY=1;exitDx=0;exitDy=0;" parent="WIyWlLk6GJQsqaUBKTNV-1" source="BfKTVqbURA2rW4PKzyzV-5" target="BfKTVqbURA2rW4PKzyzV-18" edge="1">
          <mxGeometry width="50" height="50" relative="1" as="geometry">
            <mxPoint x="280" y="260" as="sourcePoint" />
            <mxPoint x="440" y="290" as="targetPoint" />
          </mxGeometry>
        </mxCell>
        <mxCell id="BfKTVqbURA2rW4PKzyzV-29" value="" style="endArrow=classic;html=1;rounded=0;exitX=1;exitY=0;exitDx=0;exitDy=0;entryX=0.09;entryY=0.233;entryDx=0;entryDy=0;entryPerimeter=0;" parent="WIyWlLk6GJQsqaUBKTNV-1" source="BfKTVqbURA2rW4PKzyzV-23" target="BfKTVqbURA2rW4PKzyzV-18" edge="1">
          <mxGeometry width="50" height="50" relative="1" as="geometry">
            <mxPoint x="180" y="380" as="sourcePoint" />
            <mxPoint x="240" y="380" as="targetPoint" />
          </mxGeometry>
        </mxCell>
        <mxCell id="BfKTVqbURA2rW4PKzyzV-30" value="" style="endArrow=classic;html=1;rounded=0;entryX=1;entryY=0.5;entryDx=0;entryDy=0;exitX=0;exitY=0.5;exitDx=0;exitDy=0;" parent="WIyWlLk6GJQsqaUBKTNV-1" source="BfKTVqbURA2rW4PKzyzV-18" target="BfKTVqbURA2rW4PKzyzV-23" edge="1">
          <mxGeometry width="50" height="50" relative="1" as="geometry">
            <mxPoint x="280" y="460" as="sourcePoint" />
            <mxPoint x="330" y="410" as="targetPoint" />
          </mxGeometry>
        </mxCell>
        <mxCell id="BfKTVqbURA2rW4PKzyzV-31" value="" style="endArrow=classic;html=1;rounded=0;entryX=0;entryY=0;entryDx=0;entryDy=0;exitX=1;exitY=0;exitDx=0;exitDy=0;" parent="WIyWlLk6GJQsqaUBKTNV-1" source="BfKTVqbURA2rW4PKzyzV-18" target="BfKTVqbURA2rW4PKzyzV-24" edge="1">
          <mxGeometry width="50" height="50" relative="1" as="geometry">
            <mxPoint x="340" y="393" as="sourcePoint" />
            <mxPoint x="413.1" y="390.97" as="targetPoint" />
            <Array as="points">
              <mxPoint x="360" y="360" />
            </Array>
          </mxGeometry>
        </mxCell>
        <mxCell id="BfKTVqbURA2rW4PKzyzV-32" value="" style="endArrow=classic;html=1;rounded=0;exitX=0;exitY=0.5;exitDx=0;exitDy=0;" parent="WIyWlLk6GJQsqaUBKTNV-1" source="BfKTVqbURA2rW4PKzyzV-24" edge="1">
          <mxGeometry width="50" height="50" relative="1" as="geometry">
            <mxPoint x="470.0000000000007" y="384.66" as="sourcePoint" />
            <mxPoint x="330" y="385" as="targetPoint" />
            <Array as="points">
              <mxPoint x="440" y="384.66" />
            </Array>
          </mxGeometry>
        </mxCell>
        <mxCell id="BfKTVqbURA2rW4PKzyzV-33" value="Number of meals &lt;br&gt;(today + 2)" style="text;html=1;align=center;verticalAlign=middle;resizable=0;points=[];autosize=1;strokeColor=none;fillColor=none;" parent="WIyWlLk6GJQsqaUBKTNV-1" vertex="1">
          <mxGeometry x="290" y="260" width="100" height="30" as="geometry" />
        </mxCell>
        <mxCell id="BfKTVqbURA2rW4PKzyzV-34" value="" style="endArrow=classic;html=1;rounded=0;exitX=0.88;exitY=-0.021;exitDx=0;exitDy=0;exitPerimeter=0;entryX=0.996;entryY=0.567;entryDx=0;entryDy=0;entryPerimeter=0;" parent="WIyWlLk6GJQsqaUBKTNV-1" source="BfKTVqbURA2rW4PKzyzV-24" target="BfKTVqbURA2rW4PKzyzV-5" edge="1">
          <mxGeometry width="50" height="50" relative="1" as="geometry">
            <mxPoint x="280" y="310" as="sourcePoint" />
            <mxPoint x="580" y="220" as="targetPoint" />
            <Array as="points">
              <mxPoint x="557" y="211" />
            </Array>
          </mxGeometry>
        </mxCell>
        <mxCell id="BfKTVqbURA2rW4PKzyzV-35" value="" style="endArrow=classic;html=1;rounded=0;entryX=0;entryY=1;entryDx=0;entryDy=0;exitX=0;exitY=0.5;exitDx=0;exitDy=0;" parent="WIyWlLk6GJQsqaUBKTNV-1" source="BfKTVqbURA2rW4PKzyzV-26" target="BfKTVqbURA2rW4PKzyzV-23" edge="1">
          <mxGeometry width="50" height="50" relative="1" as="geometry">
            <mxPoint x="280" y="530" as="sourcePoint" />
            <mxPoint x="330" y="480" as="targetPoint" />
            <Array as="points">
              <mxPoint x="40" y="555" />
            </Array>
          </mxGeometry>
        </mxCell>
        <mxCell id="BfKTVqbURA2rW4PKzyzV-36" value="" style="endArrow=classic;html=1;rounded=0;exitX=1;exitY=1;exitDx=0;exitDy=0;entryX=1;entryY=0.5;entryDx=0;entryDy=0;" parent="WIyWlLk6GJQsqaUBKTNV-1" source="BfKTVqbURA2rW4PKzyzV-24" target="BfKTVqbURA2rW4PKzyzV-26" edge="1">
          <mxGeometry width="50" height="50" relative="1" as="geometry">
            <mxPoint x="560" y="480" as="sourcePoint" />
            <mxPoint x="610" y="430" as="targetPoint" />
            <Array as="points">
              <mxPoint x="570" y="555" />
            </Array>
          </mxGeometry>
        </mxCell>
        <mxCell id="BfKTVqbURA2rW4PKzyzV-37" value="" style="endArrow=classic;html=1;rounded=0;exitX=0.75;exitY=0;exitDx=0;exitDy=0;entryX=1;entryY=1;entryDx=0;entryDy=0;" parent="WIyWlLk6GJQsqaUBKTNV-1" source="BfKTVqbURA2rW4PKzyzV-25" target="BfKTVqbURA2rW4PKzyzV-18" edge="1">
          <mxGeometry width="50" height="50" relative="1" as="geometry">
            <mxPoint x="420" y="540" as="sourcePoint" />
            <mxPoint x="470" y="490" as="targetPoint" />
            <Array as="points">
              <mxPoint x="523" y="460" />
              <mxPoint x="430" y="460" />
            </Array>
          </mxGeometry>
        </mxCell>
        <mxCell id="BfKTVqbURA2rW4PKzyzV-38" value="Vendor data" style="shape=partialRectangle;whiteSpace=wrap;html=1;left=0;right=0;fillColor=none;" parent="WIyWlLk6GJQsqaUBKTNV-1" vertex="1">
          <mxGeometry x="120" y="450" width="70" height="30" as="geometry" />
        </mxCell>
        <mxCell id="BfKTVqbURA2rW4PKzyzV-39" value="Store&#39;s inventory" style="shape=partialRectangle;whiteSpace=wrap;html=1;left=0;right=0;fillColor=none;" parent="WIyWlLk6GJQsqaUBKTNV-1" vertex="1">
          <mxGeometry x="220" y="470" width="70" height="30" as="geometry" />
        </mxCell>
        <mxCell id="BfKTVqbURA2rW4PKzyzV-40" value="Order data" style="shape=partialRectangle;whiteSpace=wrap;html=1;left=0;right=0;fillColor=none;" parent="WIyWlLk6GJQsqaUBKTNV-1" vertex="1">
          <mxGeometry x="350" y="480" width="60" height="30" as="geometry" />
        </mxCell>
        <mxCell id="BfKTVqbURA2rW4PKzyzV-41" value="" style="endArrow=classic;html=1;rounded=0;entryX=0;entryY=1;entryDx=0;entryDy=0;exitX=0.5;exitY=0;exitDx=0;exitDy=0;startArrow=classic;startFill=1;" parent="WIyWlLk6GJQsqaUBKTNV-1" source="BfKTVqbURA2rW4PKzyzV-38" target="BfKTVqbURA2rW4PKzyzV-18" edge="1">
          <mxGeometry width="50" height="50" relative="1" as="geometry">
            <mxPoint x="200" y="470" as="sourcePoint" />
            <mxPoint x="250" y="420" as="targetPoint" />
          </mxGeometry>
        </mxCell>
        <mxCell id="BfKTVqbURA2rW4PKzyzV-42" value="" style="endArrow=classic;html=1;rounded=0;exitX=0.5;exitY=0;exitDx=0;exitDy=0;entryX=0.5;entryY=1;entryDx=0;entryDy=0;startArrow=classic;startFill=1;" parent="WIyWlLk6GJQsqaUBKTNV-1" source="BfKTVqbURA2rW4PKzyzV-39" target="BfKTVqbURA2rW4PKzyzV-18" edge="1">
          <mxGeometry width="50" height="50" relative="1" as="geometry">
            <mxPoint x="200" y="480" as="sourcePoint" />
            <mxPoint x="250" y="430" as="targetPoint" />
          </mxGeometry>
        </mxCell>
        <mxCell id="BfKTVqbURA2rW4PKzyzV-44" value="" style="endArrow=classic;html=1;rounded=0;exitX=0.5;exitY=0;exitDx=0;exitDy=0;entryX=0.697;entryY=0.958;entryDx=0;entryDy=0;startArrow=classic;startFill=1;entryPerimeter=0;" parent="WIyWlLk6GJQsqaUBKTNV-1" source="BfKTVqbURA2rW4PKzyzV-40" target="BfKTVqbURA2rW4PKzyzV-18" edge="1">
          <mxGeometry width="50" height="50" relative="1" as="geometry">
            <mxPoint x="265" y="480" as="sourcePoint" />
            <mxPoint x="295" y="440" as="targetPoint" />
          </mxGeometry>
        </mxCell>
        <mxCell id="BfKTVqbURA2rW4PKzyzV-45" value="Supplies" style="text;html=1;align=center;verticalAlign=middle;resizable=0;points=[];autosize=1;strokeColor=none;fillColor=none;" parent="WIyWlLk6GJQsqaUBKTNV-1" vertex="1">
          <mxGeometry x="170" y="340" width="60" height="20" as="geometry" />
        </mxCell>
        <mxCell id="BfKTVqbURA2rW4PKzyzV-46" value="Order &lt;br&gt;non-perishable" style="text;html=1;align=center;verticalAlign=middle;resizable=0;points=[];autosize=1;strokeColor=none;fillColor=none;" parent="WIyWlLk6GJQsqaUBKTNV-1" vertex="1">
          <mxGeometry x="150" y="390" width="90" height="30" as="geometry" />
        </mxCell>
        <mxCell id="BfKTVqbURA2rW4PKzyzV-47" value="Items used today" style="text;html=1;align=center;verticalAlign=middle;resizable=0;points=[];autosize=1;strokeColor=none;fillColor=none;" parent="WIyWlLk6GJQsqaUBKTNV-1" vertex="1">
          <mxGeometry x="350" y="390" width="100" height="20" as="geometry" />
        </mxCell>
        <mxCell id="BfKTVqbURA2rW4PKzyzV-48" value="Menu (today + 2)" style="text;html=1;align=center;verticalAlign=middle;resizable=0;points=[];autosize=1;strokeColor=none;fillColor=none;" parent="WIyWlLk6GJQsqaUBKTNV-1" vertex="1">
          <mxGeometry x="430" y="440" width="100" height="20" as="geometry" />
        </mxCell>
        <mxCell id="BfKTVqbURA2rW4PKzyzV-49" value="Items to be issued" style="text;html=1;align=center;verticalAlign=middle;resizable=0;points=[];autosize=1;strokeColor=none;fillColor=none;" parent="WIyWlLk6GJQsqaUBKTNV-1" vertex="1">
          <mxGeometry x="350" y="340" width="100" height="20" as="geometry" />
        </mxCell>
        <mxCell id="BfKTVqbURA2rW4PKzyzV-50" value="" style="endArrow=classic;html=1;rounded=0;exitX=1;exitY=0;exitDx=0;exitDy=0;entryX=0.5;entryY=0;entryDx=0;entryDy=0;" parent="WIyWlLk6GJQsqaUBKTNV-1" source="BfKTVqbURA2rW4PKzyzV-18" target="BfKTVqbURA2rW4PKzyzV-24" edge="1">
          <mxGeometry width="50" height="50" relative="1" as="geometry">
            <mxPoint x="250" y="450" as="sourcePoint" />
            <mxPoint x="450" y="310" as="targetPoint" />
            <Array as="points">
              <mxPoint x="340" y="330" />
              <mxPoint x="515" y="330" />
            </Array>
          </mxGeometry>
        </mxCell>
        <mxCell id="BfKTVqbURA2rW4PKzyzV-51" value="Low stock" style="text;html=1;align=center;verticalAlign=middle;resizable=0;points=[];autosize=1;strokeColor=none;fillColor=none;" parent="WIyWlLk6GJQsqaUBKTNV-1" vertex="1">
          <mxGeometry x="455" y="310" width="70" height="20" as="geometry" />
        </mxCell>
        <mxCell id="BfKTVqbURA2rW4PKzyzV-52" value="Perishable order" style="text;html=1;align=center;verticalAlign=middle;resizable=0;points=[];autosize=1;strokeColor=none;fillColor=none;" parent="WIyWlLk6GJQsqaUBKTNV-1" vertex="1">
          <mxGeometry x="85" y="560" width="90" height="20" as="geometry" />
        </mxCell>
        <mxCell id="BfKTVqbURA2rW4PKzyzV-53" value="Items used each day" style="text;html=1;align=center;verticalAlign=middle;resizable=0;points=[];autosize=1;strokeColor=none;fillColor=none;" parent="WIyWlLk6GJQsqaUBKTNV-1" vertex="1">
          <mxGeometry x="430" y="190" width="110" height="20" as="geometry" />
        </mxCell>
        <mxCell id="BfKTVqbURA2rW4PKzyzV-54" value="Vegetables and perishable goods needed" style="text;html=1;align=center;verticalAlign=middle;resizable=0;points=[];autosize=1;strokeColor=none;fillColor=none;" parent="WIyWlLk6GJQsqaUBKTNV-1" vertex="1">
          <mxGeometry x="355" y="560" width="210" height="20" as="geometry" />
        </mxCell>
        <mxCell id="BfKTVqbURA2rW4PKzyzV-55" value="Orders&lt;br&gt;(Perishable)" style="shape=partialRectangle;whiteSpace=wrap;html=1;left=0;right=0;fillColor=none;" parent="WIyWlLk6GJQsqaUBKTNV-1" vertex="1">
          <mxGeometry x="145" y="590" width="70" height="30" as="geometry" />
        </mxCell>
        <mxCell id="BfKTVqbURA2rW4PKzyzV-58" value="" style="endArrow=none;html=1;rounded=0;exitX=0.75;exitY=0;exitDx=0;exitDy=0;entryX=0;entryY=0.5;entryDx=0;entryDy=0;endFill=0;startArrow=classic;startFill=1;" parent="WIyWlLk6GJQsqaUBKTNV-1" source="BfKTVqbURA2rW4PKzyzV-55" target="BfKTVqbURA2rW4PKzyzV-26" edge="1">
          <mxGeometry width="50" height="50" relative="1" as="geometry">
            <mxPoint x="250" y="510" as="sourcePoint" />
            <mxPoint x="310" y="490" as="targetPoint" />
          </mxGeometry>
        </mxCell>
        <mxCell id="BfKTVqbURA2rW4PKzyzV-59" value="Vendor data&lt;br&gt;(Perishable)" style="shape=partialRectangle;whiteSpace=wrap;html=1;left=0;right=0;fillColor=none;" parent="WIyWlLk6GJQsqaUBKTNV-1" vertex="1">
          <mxGeometry x="340" y="590" width="70" height="30" as="geometry" />
        </mxCell>
        <mxCell id="BfKTVqbURA2rW4PKzyzV-61" value="" style="endArrow=classic;html=1;rounded=0;entryX=0.5;entryY=1;entryDx=0;entryDy=0;exitX=0.5;exitY=1;exitDx=0;exitDy=0;" parent="WIyWlLk6GJQsqaUBKTNV-1" source="BfKTVqbURA2rW4PKzyzV-59" target="BfKTVqbURA2rW4PKzyzV-26" edge="1">
          <mxGeometry width="50" height="50" relative="1" as="geometry">
            <mxPoint x="370" y="640" as="sourcePoint" />
            <mxPoint x="290" y="650" as="targetPoint" />
            <Array as="points">
              <mxPoint x="375" y="630" />
              <mxPoint x="285" y="630" />
            </Array>
          </mxGeometry>
        </mxCell>
      </root>
    </mxGraphModel>
  </diagram>
</mxfile>
